# xmcd
#
# Track frame offsets: 
#        150
#        1545
#        13387
#        48105
#        66057
#        78685
#        92457
#        106432
#        132400
#        154667
#        175017
#        193542
#        217450
#        233407
#        247980
#
# Disc length: 3607 seconds
#
# Revision: 0
# Processed by: cddbd v1.5.1PL0 Copyright (c) Steve Scherf et al.
# Submitted via: ExactAudioCopy v0.95a5
#
DISCID=ba0e150f
DTITLE=Northern Lights and Vassar Clements - Three August Nights Live
DYEAR=2000
DGENRE=Bluegrass
TTITLE0=Intro
TTITLE1=Goodbye Old Pal
TTITLE2=Midnight Moonlight
TTITLE3=John Hardy
TTITLE4=Hold Watcha Got
TTITLE5=Dixie Breakdown
TTITLE6=Kinfolks in Carolina
TTITLE7=Rainmaker
TTITLE8=Northern Rail
TTITLE9=Wild Horses
TTITLE10=Got the Spirit
TTITLE11=Can't Buy Your Way
TTITLE12=HeartacheTonight
TTITLE13=Dueling Banjos
TTITLE14=T for Texas
EXTD=
EXTT0=
EXTT1=
EXTT2=
EXTT3=
EXTT4=
EXTT5=
EXTT6=
EXTT7=
EXTT8=
EXTT9=
EXTT10=
EXTT11=
EXTT12=
EXTT13=
EXTT14=
PLAYORDER=
